{"title":"The Witches of Eastwick.x264.AC3 Multi_Sub-Multi_Audio.mkv","uid":5383702,"size":1529065836,"categoryP":"video","categoryS":"movies","magnet":"?xt=urn:btih:c84c36c59a9f3b7a4f23f84e0693ac5762e2a171&amp;dn=The+Witches+of+Eastwick.x264.AC3+Multi_Sub-Multi_Audio.mkv&amp;tr=udp%3A%2F%2Ftracker.openbittorrent.com%3A80&amp;tr=udp%3A%2F%2Fopen.demonii.com%3A1337&amp;tr=udp%3A%2F%2Ftracker.coppersurfer.tk%3A6969&amp;tr=udp%3A%2F%2Fexodus.desync.com%3A6969","seeders":0,"leechers":1,"uploader":"Zen_Bud","files":-1,"time":1266823848,"description":"General\nComplete name                    : The Witches of Eastwick.mkv\nFormat                           : Matroska\nFile size                        : 1.42 GiB\nDuration                         : 1h 53mn\nOverall bit rate                 : 1 801 Kbps\n\n\nVideo\nID                               : 1\nFormat                           : AVC\nDuration                         : 1h 53mn\nBit rate                         : 1 125 Kbps\nWidth                            : 704 pixels\nHeight                           : 428 pixels\nDisplay aspect ratio             : 2.35:1\nFrame rate                       : 25.000 fps\nResolution                       : 8 bits\nColorimetry                      : 4:2:0\nScan type                        : Progressive\nBits/(Pixel*Frame)               : 0.149\nStream size                      : 911 MiB (62%)\nWriting library                  : x264 core 79\n\n\nAudio #1\nID                               : 2\nFormat                           : AC-3\nFormat/Info                      : Audio Coding 3\nCodec ID                         : A_AC3\nDuration                         : 1h 53mn\nBit rate mode                    : Constant\nBit rate                         : 384 Kbps\nChannel(s)                       : 6 channels\nChannel positions                : Front: L C R, Surround: L R, LFE\nSampling rate                    : 48.0 KHz\nStream size                      : 311 MiB (21%)\nLanguage                         : English\n\nAudio #2\nID                               : 3\nFormat                           : MPEG Audio\nFormat version                   : Version 1\nFormat profile                   : Layer 3\nMode                             : Joint stereo / MS Stereo\nCodec ID                         : A_MPEG/L3\nCodec ID/Hint                    : MP3\nDuration                         : 1h 53mn\nBit rate mode                    : Constant\nBit rate                         : 128 Kbps\nChannel(s)                       : 2 channels\nSampling rate                    : 48.0 KHz\nStream size                      : 104 MiB (7%)\nLanguage                         : German\n\nAudio #3\nID                               : 4\nFormat                           : MPEG Audio\nFormat version                   : Version 1\nFormat profile                   : Layer 3\nMode                             : Joint stereo / MS Stereo\nCodec ID                         : A_MPEG/L3\nCodec ID/Hint                    : MP3\nDuration                         : 1h 53mn\nBit rate mode                    : Constant\nBit rate                         : 128 Kbps\nChannel(s)                       : 2 channels\nSampling rate                    : 48.0 KHz\nStream size                      : 104 MiB (7%)\nLanguage                         : Spanish\n\nText #1\nLanguage                         : English\n\nText #2\nLanguage                         : German\n\nText #3\nLanguage                         : Spanish\n\nText #4\nLanguage                         : Dutch\n\nText #5\nLanguage                         : Swedish\n\nText #6\nLanguage                         : Norwegian\n\nText #7\nLanguage                         : Danish\n\nText #8\nLanguage                         : Finnish\n\nText #9\nLanguage                         : Portuguese\n\nText #10\nLanguage                         : xxxxxxx\n\nText #11\nLanguage                         : Polish\n\nText #12\nLanguage                         : Greek\n\nText #13\nLanguage                         : Czech\n\nText #14\nLanguage                         : Turkish\n\nText #15\nLanguage                         : Hungarian\n\nText #16\nLanguage                         : Icelandic\n\nText #17\nLanguage                         : Croatian\n\nText #18\nLanguage                         : French\n\nText #19\nLanguage                         : Italian\n\nText #20\nLanguage                         : English\n\nText #21\nLanguage                         : German\n\n\n\n","torrent":{"xt":"urn:btih:c84c36c59a9f3b7a4f23f84e0693ac5762e2a171","amp;dn":"The+Witches+of+Eastwick.x264.AC3+Multi_Sub-Multi_Audio.mkv","amp;tr":["udp%3A%2F%2Ftracker.openbittorrent.com%3A80","udp%3A%2F%2Fopen.demonii.com%3A1337","udp%3A%2F%2Ftracker.coppersurfer.tk%3A6969","udp%3A%2F%2Fexodus.desync.com%3A6969"],"infoHash":"c84c36c59a9f3b7a4f23f84e0693ac5762e2a171","infoHashBuffer":{"type":"Buffer","data":[200,76,54,197,154,159,59,122,79,35,248,78,6,147,172,87,98,226,161,113]},"announce":[],"urlList":[]}}